<svg xmlns="http://www.w3.org/2000/svg" width="1200" height="1200"><path d="M0 600.001v600.001l600.25-.251 600.25-.251.251-599.75.251-599.75H0v600.001m.497.499c0 330 .114 465.149.253 300.332s.139-434.817 0-600S.497 270.5.497 600.5m379.818-321.531c-2.809 1.181-4.315 4.045-4.315 8.207 0 3.045 5.44 8.748 68.405 71.712l68.404 68.405 3.846-.616c4.758-.762 7.345-3.764 7.345-8.522 0-3.463-3.011-6.635-67.75-71.375-70.66-70.661-70.177-70.23-75.935-67.811m432.185-.027c-1.1.491-32.263 31.199-69.25 68.242-65.249 65.347-67.25 67.463-67.25 71.129 0 4.923 3.551 8.687 8.196 8.687 3.018 0 8.887-5.6 71.546-68.258C821.021 293.462 824 290.325 824 286.853c0-1.997-.788-4.58-1.75-5.739-2.002-2.412-6.809-3.482-9.75-2.172M549.168 448.146c-5.775 2.858-9.385 8.424-9.959 15.353-.613 7.39 2.044 12.492 10.993 21.105 3.942 3.793 8.208 8.421 9.482 10.286 2.627 3.845 2.954 8.683.78 11.558-1.347 1.78-1.199 2.231 1.727 5.25 1.761 1.816 3.55 3.302 3.975 3.302.426 0 1.8-1.797 3.054-3.992 2.219-3.886 3.78-5.101 3.78-2.942 0 2.372 7.302 16.652 11.061 21.632l4.018 5.321-2.604.991c-1.433.544-2.926.99-3.317.99-.392 0-2.183 1.343-3.98 2.984-4.644 4.242-6.726 9.963-6.284 17.266.098 1.623 2.162 1.75 28.428 1.75h28.322l-.417-5.233c-.681-8.54-4.109-13.378-12.012-16.953l-4.285-1.938 3.095-3.907c3.265-4.123 11.935-20.592 11.96-22.719.027-2.282 1.754-1.294 3.001 1.717 2.215 5.347 3.683 5.746 7.505 2.042 3.266-3.166 3.348-3.42 1.959-6.107-3.189-6.166-1.269-10.118 10.348-21.298 8.949-8.613 11.606-13.715 10.993-21.105-.914-11.024-9.552-18.319-20.37-17.203-3.091.319-6.654 1.446-8.319 2.631-2.783 1.982-4.172 2.073-31.756 2.069-28.772-.004-28.859-.011-33.765-2.5-6.075-3.082-11.667-3.194-17.413-.35M413.5 454.643c-3.736 1.946-48.107 45.865-50.067 49.557-1.615 3.044-1.883 9.505-.538 12.985.999 2.584 45.819 47.53 49.355 49.494 2.78 1.544 7.704 1.662 11.435.273 3.205-1.192 48.692-46.028 50.882-50.152 1.835-3.458 1.839-10.13.008-13.6-2.156-4.083-46.662-47.919-49.89-49.137-3.878-1.464-7.635-1.269-11.185.58m361.5.326c-5.305 2.851-49.717 47.955-50.553 51.341-.382 1.545-.462 4.868-.178 7.384.499 4.43 1.254 5.315 23.873 28.007 12.847 12.888 24.573 24.077 26.058 24.866 3.191 1.693 7.575 1.84 11.485.385 3.205-1.192 48.692-46.028 50.882-50.152 1.835-3.458 1.839-10.13.008-13.6-2.156-4.083-46.662-47.919-49.89-49.137-4.045-1.527-7.681-1.245-11.685.906m-221.5 2.239c-3.236 1.856-4.434 4.045-4.468 8.164-.029 3.514.724 4.647 8.14 12.245 4.495 4.605 8.328 8.217 8.518 8.027.19-.19-.29-3.45-1.067-7.245-.777-3.794-1.731-10.049-2.122-13.899-.39-3.85-1.225-7.331-1.855-7.735-1.67-1.07-4.852-.873-7.146.443m85.051.042c-.212.688-1.101 6.425-1.976 12.75s-1.871 12.625-2.213 14c-.47 1.885 1.5.386 8.008-6.092 7.756-7.723 8.63-8.97 8.63-12.316 0-4.974-1.321-7.16-5.128-8.487-4.167-1.452-6.844-1.399-7.321.145m-65.123 10c2.518 22.947 12.05 49.753 21.106 59.355 4.097 4.344 6.38 4.279 10.835-.308 9.024-9.291 18.674-36.17 21.199-59.047l.69-6.25h-54.516l.686 6.25m-174.931 22.753l-20.985 21.003 20.519 20.519 20.52 20.52 20.724-20.455C450.674 520.34 460 510.763 460 510.309c0-.455-9.117-9.936-20.259-21.068L419.482 469l-20.985 21.003m362 0l-20.985 21.003 20.542 20.542 20.542 20.542 20.702-20.474C812.684 520.355 822 510.769 822 510.312c0-.457-9.117-9.939-20.259-21.071L781.482 469l-20.985 21.003M595 486v12h10v-24h-10v12m-7.648 59.993c-5.879 2.373-3.143 3.006 12.839 2.974l16.309-.034-2.361-1.966c-2.048-1.707-3.833-1.959-13.5-1.904-6.126.035-12.105.454-13.287.93M512.5 578.942c-1.1.491-32.262 31.199-69.25 68.242-65.249 65.347-67.25 67.463-67.25 71.129 0 4.923 3.551 8.687 8.196 8.687 3.018 0 8.887-5.6 71.546-68.258C521.021 593.462 524 590.325 524 586.853c0-1.997-.788-4.58-1.75-5.739-2.002-2.412-6.809-3.482-9.75-2.172m167.815.027c-2.809 1.181-4.315 4.045-4.315 8.207 0 3.045 5.43 8.738 68.258 71.566C806.917 721.4 812.786 727 815.804 727c4.646 0 8.196-3.764 8.196-8.689 0-3.67-1.981-5.761-67.75-71.531-70.66-70.661-70.177-70.23-75.935-67.811M442.478 802.665c-1.177 1.177-1.478 4.635-1.478 16.972 0 9.121-.441 16.319-1.073 17.5-.731 1.365-.757 2.912-.083 4.846.66 1.893.639 6.578-.064 14.027-1.639 17.381.876 24.627 9.72 28.011 4.384 1.677 30.884 1.342 39.746-.502 11.638-2.423 16.346-7.372 9.066-9.533-2.953-.877-7.165-.777-18.691.441-17.087 1.806-26.391 1.991-30.056.598-2.515-.956-2.565-1.17-2.565-10.861 0-14.251.827-19.149 3.397-20.12 1.157-.437 8.333-1.336 15.946-1.998 20.134-1.751 29.547-4.654 30.48-9.402.46-2.338-4.308-2.149-21.723.864-14.215 2.46-24.969 3.202-25.238 1.742-.076-.413-.233-6.263-.351-13l-.212-12.25 14.1-.182c22.379-.288 29.871-.14 33.351.661 3.592.827 3.663.738 2.293-2.866-1.809-4.758-4.668-5.304-30.815-5.886-20.587-.458-24.496-.316-25.75.938m221.16-.165c-.316.825-.303 5.027.029 9.337s.286 10.385-.103 13.5l-.708 5.663-4.178.118c-7.209.204-10.178 1.194-10.178 3.392 0 2.661 5.79 5.486 11.25 5.488L664 840l.031 11.75c.058 22.065 2.817 33.75 7.969 33.75 2.823 0 2.562 3.712 2.048-29.193-.13-8.356.057-15.668.417-16.25.359-.581 3.356-1.057 6.66-1.057 8.975 0 12.248-2.542 8.102-6.294-1.182-1.07-4.096-1.704-8.75-1.905l-6.977-.301-.538-12.5c-.305-7.08-1.079-13.476-1.786-14.75-1.457-2.63-6.619-3.144-7.538-.75m-149.739.75c-.291 3.585.563 9.796 3.401 24.75 2.759 14.535 3.153 18.803 3.307 35.841.101 11.232.591 19.757 1.168 20.334.547.547 2.059.844 3.36.66 1.976-.28 2.59-1.281 3.73-6.085 1.619-6.819 3.07-7.261 9.455-2.885 8.243 5.651 14.327 8.135 19.924 8.135 6.239 0 10.024-2.114 9.563-5.339-.259-1.808-1.489-2.391-7.807-3.697-11.86-2.452-18.027-5.062-22.858-9.671-3.962-3.779-4.343-4.541-3.759-7.5.928-4.692 6.302-12.054 15.544-21.293 8.823-8.819 10.356-12.5 5.208-12.5-3.924 0-7.165 2.807-12.418 10.753-5.156 7.799-7.212 9.84-10.818 10.74-2.562.639-2.621.531-3.842-7.039-1.777-11.014-5.782-27.044-8.023-32.111-1.8-4.068-4.905-5.938-5.135-3.093m235.489 24.338c-.376 1.502-.421 9.833-.098 18.514l.587 15.783-3.897 4.016c-6.566 6.766-14.453 9.857-20.793 8.149-4.016-1.081-10.009-6.635-12.466-11.55-2.596-5.195-5.423-15.67-6.746-25-1.638-11.547-2.069-12.406-4.84-9.635-1.763 1.763-2.132 3.312-2.118 8.885.061 23.456 12.954 43.827 29.111 45.994 3.206.43 5.419-.292 13.323-4.349 7.718-3.962 9.717-4.627 10.764-3.581 3.022 3.019 1.242 36.334-2.764 51.712-5.236 20.102-18.815 20.42-37.782.885-3.651-3.761-6.943-6.36-7.566-5.975-1.559.964-1.37 7.156.317 10.364 3.916 7.448 18.71 17.347 28.01 18.742 6.819 1.022 10.807-.119 15.058-4.309 7.854-7.743 12.074-22.915 13.138-47.233 1.188-27.169-4.51-72.162-9.339-73.745-.667-.218-1.522.832-1.899 2.333m-147.642 2.498C587.674 833.402 577 845.659 577 858.5c0 5.28 2.921 13.341 6.18 17.052 5.339 6.081 11.036 8.733 19.858 9.244 13.989.81 25.606-5.03 31.162-15.664 6.431-12.311 1.329-29.39-11.146-37.31-3.781-2.4-5.426-2.807-11-2.722-3.605.056-8.243.499-10.308.986m.988 8.002c-16.392 3.862-22.973 17.259-14.806 30.138 7.154 11.281 21.676 11.633 33.417.81 12.199-11.244 9.775-22.639-6.373-29.964-4.853-2.201-6.508-2.334-12.238-.984" fill="undefined" fill-rule="evenodd"/></svg>